<svg width="1080" height="1080" viewBox="0 0 1080 1080" fill="none" xmlns="http://www.w3.org/2000/svg">
<path d="M525.93 951.996C430.464 951.996 391.649 797.724 329.085 734.888C266.522 672.052 112.918 633.068 112.918 537.188C112.918 441.307 266.522 402.323 329.085 339.487C391.649 276.651 430.464 122.38 525.93 122.38C621.395 122.38 660.211 276.651 722.774 339.487C785.338 402.323 938.942 441.307 938.942 537.188C938.942 633.068 785.338 672.052 722.774 734.888C660.211 797.724 621.395 951.996 525.93 951.996Z" fill="white"/>
<path d="M288.007 537.188L423.964 400.64V468.923H559.921L423.964 571.329V673.736L288.007 537.188Z" fill="black"/>
<path d="M763.865 537.188L627.908 673.736V605.452H491.951L627.908 503.046V400.64L763.865 537.188Z" fill="black"/>
</svg>
